<?xml version="1.0" standalone="no"?>
<!DOCTYPE svg PUBLIC "-//W3C//DTD SVG 20010904//EN"
 "http://www.w3.org/TR/2001/REC-SVG-20010904/DTD/svg10.dtd">
<svg version="1.0" xmlns="http://www.w3.org/2000/svg"
 width="260.000000pt" height="260.000000pt" viewBox="0 0 260.000000 260.000000"
 preserveAspectRatio="xMidYMid meet">

<g transform="translate(0.000000,260.000000) scale(0.100000,-0.100000)"
fill="#000000" stroke="none">
<path d="M1195 2388 c-476 -39 -878 -406 -971 -887 -22 -109 -19 -314 5 -426
91 -430 435 -767 870 -851 109 -21 314 -19 426 5 430 90 767 435 851 870 20
101 19 304 -1 410 -43 222 -152 420 -322 582 -235 224 -526 325 -858 297z
m210 -78 c240 -27 440 -124 611 -294 172 -172 266 -369 294 -616 19 -155 -17
-388 -77 -503 l-16 -32 -10 25 c-6 14 -21 47 -34 73 -13 27 -23 59 -23 73 0
15 -10 30 -27 41 -16 10 -45 34 -65 55 -33 33 -36 40 -28 67 13 47 -15 103
-68 135 -49 30 -81 88 -82 147 0 43 -17 98 -36 119 -12 12 -14 12 -14 -3 0 -9
-4 -17 -10 -17 -8 0 -33 -22 -150 -135 l-25 -24 -35 29 c-19 16 -43 30 -52 30
-12 0 -18 8 -18 24 0 12 -11 35 -25 50 l-25 27 21 31 c12 16 30 51 40 76 l18
47 1 -37 c0 -37 1 -38 35 -38 23 0 49 -10 77 -30 42 -30 68 -38 68 -20 0 6 12
10 26 10 17 0 23 4 18 13 -5 8 -2 8 9 -2 18 -14 24 -2 7 15 -5 5 -11 75 -12
154 -3 137 -4 145 -23 146 -11 1 -51 2 -88 3 l-68 1 3 108 c3 99 1 110 -20
137 -35 44 -60 57 -98 53 -19 -2 -34 0 -34 5 0 5 -13 7 -29 4 -20 -4 -37 0
-53 11 -33 25 -75 27 -106 5 -30 -20 -31 -20 -85 -22 -34 -1 -47 -9 -106 -71
-57 -60 -71 -81 -89 -141 -37 -118 -24 -241 35 -329 13 -19 23 -45 23 -57 0
-32 30 -104 41 -97 5 3 9 33 9 67 l0 62 26 -26 c19 -19 26 -38 27 -68 l2 -41
42 6 c55 8 64 -11 29 -63 -26 -37 -33 -59 -18 -49 4 2 14 1 21 -3 9 -6 10 -11
2 -15 -6 -4 -11 -3 -11 2 0 5 -16 9 -36 8 -27 -1 -39 -6 -44 -21 -7 -18 -10
-16 -24 17 -9 21 -16 51 -16 67 0 16 -4 32 -9 36 -17 10 -62 -61 -66 -103 -2
-24 -20 -67 -44 -107 -23 -37 -41 -71 -41 -76 0 -12 -53 -59 -66 -59 -6 0 -19
10 -27 23 -20 28 -21 11 -3 -65 7 -32 10 -58 6 -58 -4 0 -17 41 -29 92 l-22
92 35 30 c47 42 70 90 56 117 -17 30 -14 161 4 216 24 76 39 174 28 185 -18
18 -29 -1 -47 -87 -31 -150 -89 -183 -108 -62 -11 69 -60 187 -79 187 -27 0
-29 -14 -9 -72 10 -30 22 -74 26 -99 4 -24 14 -56 21 -71 21 -40 17 -55 -16
-67 -36 -12 -46 -34 -31 -67 15 -34 -10 -43 -39 -14 -19 19 -47 20 -35 0 6
-10 17 -180 11 -180 -3 0 -11 7 -20 15 -14 14 -17 13 -31 -14 -15 -30 -15 -31
21 -71 l36 -39 -21 -27 c-12 -15 -21 -32 -21 -38 0 -7 -12 -28 -26 -47 -14
-19 -35 -54 -45 -78 -19 -43 -20 -44 -40 -25 -36 32 -39 47 -19 93 l19 42 -29
-21 c-17 -12 -30 -26 -30 -32 0 -5 -6 -8 -12 -5 -14 5 -68 -23 -68 -35 0 -4
-4 -8 -9 -8 -5 0 -18 35 -28 78 -26 113 -24 358 5 464 51 186 144 347 275 476
130 129 262 207 434 257 140 41 247 51 388 35z m-105 -300 c0 -5 11 -10 25
-10 14 0 25 -4 25 -10 0 -5 -13 -10 -29 -10 -17 0 -33 -4 -36 -10 -3 -5 1 -10
9 -10 24 0 44 -27 39 -53 -6 -31 22 -87 44 -87 29 0 83 -23 83 -36 0 -15 -44
-27 -48 -14 -2 6 -10 10 -17 10 -19 0 -75 -49 -75 -66 0 -24 30 -28 61 -10 29
17 39 10 17 -12 -9 -9 -8 -15 7 -26 18 -13 18 -14 -3 -25 -30 -16 -47 -14
-100 13 -51 26 -107 41 -134 37 -13 -2 -21 9 -30 43 -7 28 -18 46 -28 47 -48
4 -61 7 -75 19 -19 16 -19 43 0 81 10 19 20 27 28 22 7 -4 14 -8 17 -9 3 0 18
-6 34 -13 36 -15 46 -4 46 55 0 47 14 64 51 64 15 0 31 5 34 10 3 6 17 10 31
10 13 0 24 -4 24 -10z m185 -111 c20 -38 13 -59 -19 -59 -14 0 -28 -4 -31 -10
-13 -21 -23 -9 -22 28 0 38 20 72 43 72 8 0 21 -14 29 -31z m159 -119 c14 -5
26 -17 26 -25 0 -9 6 -15 13 -14 22 4 47 -13 47 -32 0 -29 -38 -24 -52 6 -7
16 -19 25 -33 25 -26 0 -50 24 -40 40 8 12 8 12 39 0z m-874 -284 c0 -3 -4 -8
-10 -11 -5 -3 -10 -1 -10 4 0 6 5 11 10 11 6 0 10 -2 10 -4z m899 -100 c7 -8
8 -17 3 -19 -4 -3 -13 3 -20 14 -14 22 0 26 17 5z m-432 -110 c17 -21 25 -23
71 -18 29 2 52 1 52 -2 0 -4 -8 -21 -17 -39 -9 -18 -24 -58 -33 -89 l-15 -57
-54 104 c-48 93 -56 125 -31 125 5 0 17 -11 27 -24z m653 -213 c13 -37 25 -73
27 -79 6 -16 -35 -57 -51 -51 -9 4 -26 55 -45 136 -17 72 -31 133 -31 136 0 3
17 -12 38 -34 24 -26 46 -64 62 -108z m-1010 -30 c5 -21 22 -94 36 -163 15
-69 33 -133 42 -142 14 -16 13 -18 -2 -18 -9 0 -18 6 -20 13 -2 6 -18 77 -35
157 -17 80 -34 155 -37 168 -4 12 -4 22 -1 22 3 0 11 -17 17 -37z m1105 -473
c16 -1 10 -10 -28 -45 -27 -25 -52 -45 -56 -45 -4 0 -12 14 -19 32 -12 33 -5
47 26 48 6 0 12 5 12 11 0 7 9 9 23 5 12 -3 31 -6 42 -6z m-1285 -80 c0 -17
-15 -11 -39 14 -16 17 -19 25 -10 28 14 5 49 -26 49 -42z"/>
<path d="M1627 1622 c-24 -26 -21 -34 19 -59 36 -23 78 -30 88 -14 6 9 -31 45
-56 54 -10 4 -18 13 -18 22 0 20 -13 19 -33 -3z"/>
<path d="M1553 1603 c9 -2 23 -2 30 0 6 3 -1 5 -18 5 -16 0 -22 -2 -12 -5z"/>
<path d="M1585 1560 c-4 -6 -13 -9 -21 -6 -18 7 -18 -2 1 -20 13 -13 76 -44
90 -44 3 0 5 9 5 20 0 13 -7 20 -19 20 -11 0 -26 9 -34 21 -10 14 -17 17 -22
9z"/>
<path d="M527 1202 c-18 -20 -22 -42 -9 -42 10 0 35 50 29 56 -2 2 -11 -4 -20
-14z"/>
<path d="M1045 1870 c-3 -5 -3 -21 1 -35 5 -19 12 -25 28 -23 16 2 21 10 22
36 1 27 -3 32 -22 32 -13 0 -25 -4 -29 -10z m45 -34 c0 -3 -4 -8 -10 -11 -5
-3 -10 -1 -10 4 0 6 5 11 10 11 6 0 10 -2 10 -4z"/>
</g>
</svg>
